<svg xmlns="http://www.w3.org/2000/svg" width="16" height="16" version="1.1">
 <rect id="hint-rotation-angle" width="16" height="16" x="0" y="32" style="fill:#0000ff"/>
 <g id="stopped">
  <rect style="opacity:0.001" width="16" height="16" x="32.01" y=".01"/>
  <path style="fill:#222222" d="M 48,1 A 15,15 0 0 0 33,16 15,15 0 0 0 48,31 15,15 0 0 0 63,16 15,15 0 0 0 48,1 Z m 0,4 A 10.999999,10.999999 0 0 1 59,16 10.999999,10.999999 0 0 1 48,27 10.999999,10.999999 0 0 1 37,16 10.999999,10.999999 0 0 1 48,5 Z"/>
 </g>
 <g id="busywidget">
  <rect style="opacity:0.001" width="16" height="16" x="-.03" y="-.03"/>
  <path style="fill:#222222" d="M 16 1 A 2 2 0 0 0 14 3 L 14 8 A 2 2 0 0 0 16 10 A 2 2 0 0 0 18 8 L 18 3 A 2 2 0 0 0 16 1 z M 6.4941406 4.8320312 A 2 2 0 0 0 5.3925781 5.3925781 A 2 2 0 0 0 5.3925781 8.2226562 L 8.9296875 11.757812 A 2 2 0 0 0 11.757812 11.757812 A 2 2 0 0 0 11.757812 8.9296875 L 8.2226562 5.3925781 A 2 2 0 0 0 6.4941406 4.8320312 z M 24.878906 4.8320312 A 2 2 0 0 0 23.777344 5.3925781 L 20.242188 8.9296875 A 2 2 0 0 0 20.242188 11.757812 A 2 2 0 0 0 23.070312 11.757812 L 26.607422 8.2226562 A 2 2 0 0 0 26.607422 5.3925781 A 2 2 0 0 0 24.878906 4.8320312 z M 3 14 A 2 2 0 0 0 1 16 A 2 2 0 0 0 3 18 L 8 18 A 2 2 0 0 0 10 16 A 2 2 0 0 0 8 14 L 3 14 z M 24 14 A 2 2 0 0 0 22 16 A 2 2 0 0 0 24 18 L 29 18 A 2 2 0 0 0 31 16 A 2 2 0 0 0 29 14 L 24 14 z M 10.03125 19.681641 A 2 2 0 0 0 8.9296875 20.242188 L 5.3925781 23.777344 A 2 2 0 0 0 5.3925781 26.607422 A 2 2 0 0 0 8.2226562 26.607422 L 11.757812 23.070312 A 2 2 0 0 0 11.757812 20.242188 A 2 2 0 0 0 10.03125 19.681641 z M 21.34375 19.681641 A 2 2 0 0 0 20.242188 20.242188 A 2 2 0 0 0 20.242188 23.070312 L 23.777344 26.607422 A 2 2 0 0 0 26.607422 26.607422 A 2 2 0 0 0 26.607422 23.777344 L 23.070312 20.242188 A 2 2 0 0 0 21.34375 19.681641 z M 16 22 A 2 2 0 0 0 14 24 L 14 29 A 2 2 0 0 0 16 31 A 2 2 0 0 0 18 29 L 18 24 A 2 2 0 0 0 16 22 z"/>
 </g>
</svg>
