<svg xmlns="http://www.w3.org/2000/svg" width="109" height="197" version="1">
 <g id="normal-center" transform="translate(-107.99716,50)">
  <rect style="opacity:0.17;fill:#8f9eb7" width="105" height="35" x="110" y="-48"/>
 </g>
 <rect id="pressed-center" style="fill:#111810" width="105" height="24" x="2" y="-195" transform="scale(1,-1)"/>
 <rect id="hover-center" style="fill:#000000" width="105" height="24" x="2" y="58"/>
 <rect id="focus-center" style="fill:#111810" width="105" height="24" x="2" y="106"/>
 <rect id="hover-hint-bottom-margin" style="fill:#4e9a06" width="2" height=".1" x="53.5" y="94"/>
 <rect id="hover-hint-top-margin" style="fill:#4e9a06" width="2" height=".1" x="53.5" y="56.9"/>
 <rect id="hover-hint-left-margin" style="fill:#4e9a06" width="2" height=".1" x="-76" y=".9" transform="rotate(-90)"/>
 <rect id="hover-hint-right-margin" style="fill:#4e9a06" width="2" height=".1" x="-76" y="108" transform="rotate(-90)"/>
 <rect id="focus-hint-bottom-margin" style="fill:#4e9a06" width="2" height=".1" x="53.5" y="141.9"/>
 <rect id="focus-hint-top-margin" style="fill:#4e9a06" width="2" height=".1" x="53.5" y="104.8"/>
 <rect id="focus-hint-left-margin" style="fill:#4e9a06" width="2" height=".1" x="-123.9" y=".9" transform="rotate(-90)"/>
 <rect id="focus-hint-right-margin" style="fill:#4e9a06" width="2" height=".1" x="-123.9" y="108" transform="rotate(-90)"/>
 <rect id="pressed-hint-top-margin" style="fill:#4e9a06" width="2" height="2" x="53.5" y="156"/>
 <rect id="pressed-hint-right-margin" style="fill:#4e9a06" width="2" height="2" x="-178" y="103" transform="rotate(-90)"/>
 <rect id="pressed-hint-left-margin" style="fill:#4e9a06" width="2" height="2" x="-178" y="0" transform="rotate(-90)"/>
 <rect id="pressed-hint-bottom-margin" style="fill:#4e9a06" width="2" height="2" x="53.5" y="191"/>
 <rect id="normal-hint-top-margin" style="fill:#4e9a06" width="2" height="2" x="53.5" y="0"/>
 <rect id="normal-hint-right-margin" style="fill:#4e9a06" width="2" height="2" x="-20" y="103" transform="rotate(-90)"/>
 <rect id="normal-hint-left-margin" style="fill:#4e9a06" width="2" height="2" x="-20" y="0" transform="rotate(-90)"/>
 <rect id="normal-hint-bottom-margin" style="fill:#4e9a06" width="2" height="2" x="53.5" y="33"/>
</svg>
