<svg xmlns="http://www.w3.org/2000/svg" width="80" height="60" version="1">
 <rect id="base-center" style="fill:#000000" width="80" height="20" x="0" y="0"/>
 <rect id="hover-center" style="fill:#000000" width="80" height="20" x="0" y="20"/>
 <rect id="focus-center" style="fill:#111810" width="80" height="20" x="0" y="40"/>
 
 <rect id="base-hint-top-margin" style="fill:#4e9a06" width="2" height="2" x="39" y="0"/>
 <rect id="base-hint-right-margin" style="fill:#4e9a06" width="2" height="2" x="78" y="10"/>
 <rect id="base-hint-left-margin" style="fill:#4e9a06" width="2" height="2" x="0" y="10"/>
 <rect id="base-hint-bottom-margin" style="fill:#4e9a06" width="2" height="2" x="39" y="18"/>

 <rect id="hover-hint-top-margin" style="fill:#4e9a06" width="2" height="2" x="39" y="20"/>
 <rect id="hover-hint-right-margin" style="fill:#4e9a06" width="2" height="2" x="78" y="30"/>
 <rect id="hover-hint-left-margin" style="fill:#4e9a06" width="2" height="2" x="0" y="30"/>
 <rect id="hover-hint-bottom-margin" style="fill:#4e9a06" width="2" height="2" x="39" y="38"/>

 <rect id="focus-hint-top-margin" style="fill:#4e9a06" width="2" height="2" x="39" y="40"/>
 <rect id="focus-hint-right-margin" style="fill:#4e9a06" width="2" height="2" x="78" y="50"/>
 <rect id="focus-hint-left-margin" style="fill:#4e9a06" width="2" height="2" x="0" y="50"/>
 <rect id="focus-hint-bottom-margin" style="fill:#4e9a06" width="2" height="2" x="39" y="58"/>
</svg>
