<svg xmlns="http://www.w3.org/2000/svg" width="32" height="96" version="1"> 
 <rect id="normal-center" style="fill:#000000" width="32" height="24" x="0" y="0"/>
 <rect id="hover-center" style="fill:#000000" width="32" height="24" x="0" y="24"/>
 <rect id="pressed-center" style="fill:#111810" width="32" height="24" x="0" y="48"/>
 <rect id="section-center" style="fill:#000000" width="32" height="24" x="0" y="72"/>
 
 <rect id="normal-hint-top-margin" style="fill:#4e9a06" width="4" height="4" x="14" y="0"/>
 <rect id="normal-hint-right-margin" style="fill:#4e9a06" width="4" height="4" x="28" y="11"/>
 <rect id="normal-hint-left-margin" style="fill:#4e9a06" width="4" height="4" x="0" y="11"/>
 <rect id="normal-hint-bottom-margin" style="fill:#4e9a06" width="4" height="4" x="14" y="20"/>

 <rect id="hover-hint-top-margin" style="fill:#4e9a06" width="4" height="4" x="14" y="24"/>
 <rect id="hover-hint-right-margin" style="fill:#4e9a06" width="4" height="4" x="28" y="35"/>
 <rect id="hover-hint-left-margin" style="fill:#4e9a06" width="4" height="4" x="0" y="35"/>
 <rect id="hover-hint-bottom-margin" style="fill:#4e9a06" width="4" height="4" x="14" y="44"/>

 <rect id="pressed-hint-top-margin" style="fill:#4e9a06" width="4" height="4" x="14" y="48"/>
 <rect id="pressed-hint-right-margin" style="fill:#4e9a06" width="4" height="4" x="28" y="59"/>
 <rect id="pressed-hint-left-margin" style="fill:#4e9a06" width="4" height="4" x="0" y="59"/>
 <rect id="pressed-hint-bottom-margin" style="fill:#4e9a06" width="4" height="4" x="14" y="68"/>

 <rect id="section-hint-bottom-margin" style="fill:#4e9a06" width="4" height="4" x="14" y="72"/>
 <rect id="section-hint-right-margin" style="fill:#4e9a06" width="4" height="4" x="28" y="83"/>
 <rect id="section-hint-left-margin" style="fill:#4e9a06" width="4" height="4" x="0" y="83"/>
 <rect id="section-hint-top-margin" style="fill:#4e9a06" width="4" height="4" x="14" y="92"/>
</svg>
