<svg xmlns="http://www.w3.org/2000/svg" width="32" height="72" version="1">
 <rect id="normal-center" style="fill:#000000" width="32" height="24" x="0" y="0"/>
 <rect id="hover-center" style="fill:#000000" width="32" height="24" x="0" y="24"/>
 <rect id="pressed-center" style="fill:#111810" width="32" height="24" x="0" y="48"/>
 
 <rect id="normal-hint-top-margin" style="fill:#4e9a06" width="2" height="2" x="16" y="0"/>
 <rect id="normal-hint-right-margin" style="fill:#4e9a06" width="2" height="2" x="30" y="11"/>
 <rect id="normal-hint-left-margin" style="fill:#4e9a06" width="2" height="2" x="0" y="11"/>
 <rect id="normal-hint-bottom-margin" style="fill:#4e9a06" width="2" height="2" x="16" y="22"/>

 <rect id="hover-hint-top-margin" style="fill:#4e9a06" width="2" height="2" x="16" y="24"/>
 <rect id="hover-hint-right-margin" style="fill:#4e9a06" width="2" height="2" x="30" y="35"/>
 <rect id="hover-hint-left-margin" style="fill:#4e9a06" width="2" height="2" x="0" y="35"/>
 <rect id="hover-hint-bottom-margin" style="fill:#4e9a06" width="2" height="2" x="16" y="46"/>

 <rect id="pressed-hint-top-margin" style="fill:#4e9a06" width="2" height="2" x="16" y="48"/>
 <rect id="pressed-hint-right-margin" style="fill:#4e9a06" width="2" height="2" x="30" y="59"/>
 <rect id="pressed-hint-left-margin" style="fill:#4e9a06" width="2" height="2" x="0" y="59"/>
 <rect id="pressed-hint-bottom-margin" style="fill:#4e9a06" width="2" height="2" x="16" y="70"/>
</svg>
