<?xml version="1.0" encoding="UTF-8"?>
<svg xmlns="http://www.w3.org/2000/svg" xmlns:xlink="http://www.w3.org/1999/xlink" width="16px" height="16px" viewBox="0 0 16 16" version="1.1">
<g id="surface1">
<path style=" stroke:none;fill-rule:evenodd;fill:rgb(9.019608%,57.647061%,81.960785%);fill-opacity:1;" d="M 8 0 C 7.285156 1.746094 6.855469 2.886719 6.0625 4.582031 C 6.550781 5.097656 7.148438 5.695312 8.113281 6.375 C 7.070312 5.945312 6.363281 5.515625 5.828125 5.070312 C 4.816406 7.1875 3.222656 10.203125 -0.00390625 16 C 2.535156 14.539062 4.5 13.636719 6.335938 13.289062 C 6.253906 12.953125 6.210938 12.585938 6.214844 12.203125 L 6.21875 12.121094 C 6.257812 10.496094 7.101562 9.246094 8.105469 9.332031 C 9.105469 9.417969 9.882812 10.804688 9.84375 12.429688 C 9.835938 12.722656 9.804688 13.015625 9.742188 13.300781 C 11.554688 13.65625 13.5 14.558594 16 16 L 14.644531 13.496094 C 13.984375 12.980469 13.292969 12.3125 11.882812 11.589844 C 12.851562 11.839844 13.546875 12.132812 14.082031 12.457031 C 9.808594 4.496094 9.460938 3.4375 7.996094 0 Z M 8 0 "/>
</g>
</svg>
