<svg xmlns="http://www.w3.org/2000/svg" width="64" height="137" version="1">
 <rect id="center" style="fill:#000000" width="50" height="50" x="7" y="14"/>
 <rect id="thick-hint-top-margin" style="fill:#ff0000" width="2" height="2" x="29" y="7"/>
 <rect id="hint-top-margin" style="fill:#ff00ff" width="2" height="2" x="29" y="7"/>
 <rect id="thick-hint-bottom-margin" style="fill:#ff0000" width="2" height="2" x="29" y="64"/>
 <rect id="hint-bottom-margin" style="fill:#ff00ff" width="2" height="2" x="29" y="69"/>
 <rect id="thick-hint-left-margin" style="fill:#ff0000" width="2" height="2" x="35" y="-7" transform="rotate(90)"/>
 <rect id="hint-left-margin" style="fill:#ff00ff" width="2" height="2" x="0" y="35"/>
 <rect id="thick-hint-right-margin" style="fill:#ff0000" width="2" height="2" x="35" y="-64" transform="rotate(90)"/>
 <rect id="hint-right-margin" style="fill:#ff00ff" width="2" height="2" x="62" y="35"/>
 <rect id="hint-tile-center" style="fill:#ff6600" width="2" height="2" x="0" y="0"/>
 <rect id="mask-center" width="50" height="50" x="7" y="80"/>
 <path id="mask-topleft" d="m 7,72.999875 v 7 H 0 v -2 c 0,-2.77 2.23,-5 5,-5 z"/>
 <path id="mask-left" d="m 1e-5,79.999865 v 49.999995 l 7,10e-6 V 79.999875 Z"/>
 <path id="mask-right" d="m 63.99999,79.999875 v 49.999995 l -7,1e-5 V 79.999885 Z"/>
 <path id="mask-bottomleft" d="m 7,136.99996 v -7 H 0 v 2 c 0,2.77 2.23,5 5,5 z"/>
 <path id="mask-bottom" d="m 6.99997,137 h 50.00002 v -7 H 6.99998 Z"/>
 <path id="mask-bottomright" d="m 56.99999,136.99996 v -7 h 7 v 2 c 0,2.77 -2.23,5 -5,5 z"/>
 <path id="mask-topright" d="m 56.99999,72.999875 v 7 h 7 v -2 c 0,-2.77 -2.23,-5 -5,-5 z"/>
 <path id="mask-top" d="m 6.99997,72.999875 h 50.00002 v 7 H 6.99998 Z"/>
 <rect id="thick-center" style="fill:#800080" width="2" height="2" x="5" y="0"/>
</svg>
